<svg width="24" height="24" viewBox="0 0 24 24" fill="none" xmlns="http://www.w3.org/2000/svg">
  <path d="M9 4.75C9 3.784 9.784 3 10.75 3H13.25C14.216 3 15 3.784 15 4.75V5H17C18.1046 5 19 5.89543 19 7V19C19 20.1046 18.1046 21 17 21H7C5.89543 21 5 20.1046 5 19V7C5 5.89543 5.89543 5 7 5H9V4.75ZM10.75 4.5C10.612 4.5 10.5 4.61193 10.5 4.75V6H13.5V4.75C13.5 4.61193 13.3881 4.5 13.25 4.5H10.75ZM7 6.5C6.72386 6.5 6.5 6.72386 6.5 7V19C6.5 19.2761 6.72386 19.5 7 19.5H17C17.2761 19.5 17.5 19.2761 17.5 19V7C17.5 6.72386 17.2761 6.5 17 6.5H15V7C15 7.55228 14.5523 8 14 8H10C9.44772 8 9 7.55228 9 7V6.5H7Z" fill="#D8E0F2"/>
</svg>
